<svg width="257" height="64" viewBox="0 0 257 64" fill="none" xmlns="http://www.w3.org/2000/svg">
<g clip-path="url(#clip0_0_12)">
<path fill-rule="evenodd" clip-rule="evenodd" d="M208.323 16.7851V49.9878H218.774V16.7851H208.323ZM209.482 9.83808C210.574 10.9304 211.943 11.4766 213.582 11.4766C215.224 11.4766 216.568 10.9304 217.614 9.83808C218.661 8.69965 219.186 7.37677 219.186 5.73827C219.186 4.09978 218.661 2.73083 217.614 1.6385C216.565 0.546166 215.221 0 213.582 0C211.943 0 210.574 0.546166 209.482 1.6385C208.436 2.73083 207.911 4.14234 207.911 5.73827C207.911 7.33424 208.436 8.69965 209.482 9.83808ZM154.624 31.067V49.9914L154.617 49.9949H165.069V28.7476C165.069 26.2437 164.523 24.059 163.43 22.19C162.384 20.2784 160.88 18.796 158.923 17.7498C156.965 16.6574 154.642 16.1113 152.092 16.1113C149.542 16.1113 147.286 16.6574 145.329 17.7498C144.528 18.177 143.8 18.6805 143.144 19.2601V0.389491H132.693V49.9914H143.144V31.0705C143.144 29.9321 143.396 28.9284 143.896 28.0631C144.396 27.1516 145.08 26.4671 145.946 26.0132C146.811 25.5131 147.815 25.2613 148.953 25.2613C150.595 25.2613 151.94 25.8075 152.986 26.8998C154.078 27.946 154.624 29.3363 154.624 31.067ZM116.904 50.7434C113.489 50.7434 110.393 49.9914 107.612 48.4877C104.832 46.984 102.647 44.9126 101.054 42.2704C99.4621 39.6285 98.6643 36.6669 98.6643 33.3901C98.6643 30.1131 99.4621 27.1056 101.054 24.5095C102.693 21.8674 104.902 19.7962 107.683 18.2924C110.46 16.7887 113.581 16.0369 117.042 16.0369C119.638 16.0369 122.007 16.4908 124.149 17.4023C126.338 18.2676 128.271 19.5869 129.959 21.3637L123.263 28.0596C122.49 27.1942 121.578 26.5559 120.529 26.148C119.525 25.7366 118.365 25.5345 117.042 25.5345C115.539 25.5345 114.195 25.8749 113.01 26.5594C111.871 27.1978 110.96 28.1093 110.279 29.2938C109.641 30.4322 109.322 31.7764 109.322 33.3261C109.322 34.8762 109.641 36.2416 110.279 37.4259C110.964 38.6106 111.896 39.5434 113.081 40.2278C114.265 40.9123 115.585 41.2528 117.042 41.2528C118.408 41.2528 119.617 41.0256 120.663 40.5683C121.756 40.0682 122.688 39.3837 123.465 38.5184L130.093 45.2141C128.363 47.0371 126.405 48.4237 124.217 49.3814C122.029 50.2928 119.592 50.7469 116.908 50.7469L116.904 50.7434ZM59.1731 48.4662C56.0557 50.2643 52.9098 51.2397 49.7357 51.3885H49.7392C46.5827 51.4771 43.6534 50.775 40.951 49.2854C38.2486 47.7958 36.0675 45.6112 34.4042 42.7315C32.7408 39.8515 31.9321 36.9008 31.9747 33.8794C32.0349 30.7938 32.8541 27.9282 34.4288 25.2825C36.0035 22.6368 38.2522 20.4699 41.1709 18.7853C44.008 17.1468 46.8666 16.3098 49.7427 16.2814C52.6189 16.2495 55.2931 16.9659 57.7687 18.4306C60.2867 19.8705 62.3507 21.9913 63.968 24.7931C64.2624 25.3038 64.5424 25.8783 64.8048 26.5167C65.0816 27.0913 65.3616 27.8006 65.6349 28.6411L45.0509 40.593C45.448 40.9795 45.8666 41.3235 46.3027 41.6179C47.6186 42.4371 49.0192 42.8627 50.5123 42.8947C52.0234 42.8662 53.5446 42.4051 55.0838 41.5184C55.928 41.0291 56.6762 40.4864 57.329 39.887L63.0352 45.6397C61.904 46.6893 60.6163 47.6326 59.1731 48.4662ZM41.4682 34.3741L41.4653 34.3757H41.4688L41.4682 34.3741ZM54.0128 27.0842L41.4682 34.3741C41.3443 33.8922 41.263 33.4176 41.224 32.9536C41.1318 31.4287 41.4192 30.0562 42.0787 28.8326C42.7562 27.5488 43.8058 26.4954 45.2246 25.6762C46.5651 24.8995 47.8595 24.5484 49.1078 24.6158C50.3741 24.6229 51.5622 25.0413 52.6723 25.8712C53.1261 26.2011 53.5731 26.6054 54.0128 27.0842ZM85.9776 50.1258L85.9808 50.1296L80.1043 64H69.3795L69.376 63.9965L76.9261 47.7101L64.2512 16.7851H75.5258L82.1414 36.9485L88.9139 16.7851H100.188L85.9776 50.1258ZM183.61 50.6758C180.56 50.6758 177.826 49.9238 175.411 48.4202C173.041 46.9165 171.151 44.8666 169.74 42.2704C168.374 39.6746 167.69 36.713 167.69 33.3901C167.69 30.0669 168.374 27.1055 169.74 24.5095C171.151 21.9134 173.041 19.8635 175.411 18.3598C177.826 16.8561 180.557 16.1042 183.61 16.1042C185.841 16.1042 187.845 16.5369 189.621 17.4022C190.816 17.9694 191.863 18.6829 192.764 19.5437V16.7922H203.013V49.9949H192.764V47.2982C191.891 48.1232 190.866 48.8154 189.689 49.3741C187.866 50.2397 185.841 50.6723 183.606 50.6723L183.61 50.6758ZM185.727 41.249C187.958 41.249 189.76 40.5219 191.125 39.0643C192.491 37.5606 193.175 35.6704 193.175 33.3936C193.175 31.8437 192.856 30.4783 192.218 29.2938C191.625 28.1092 190.76 27.1978 189.621 26.5594C188.529 25.8749 187.253 25.5344 185.795 25.5344C184.337 25.5344 183.039 25.8749 181.901 26.5594C180.808 27.1978 179.918 28.1092 179.237 29.2938C178.599 30.4783 178.28 31.8437 178.28 33.3936C178.28 34.9434 178.599 36.2413 179.237 37.4259C179.876 38.6106 180.762 39.5434 181.901 40.2278C183.039 40.9123 184.316 41.2528 185.727 41.2528V41.249ZM246.019 49.9914V31.0671C246.019 29.3364 245.472 27.9461 244.38 26.8999C243.334 25.8076 241.989 25.2614 240.351 25.2614C239.213 25.2614 238.209 25.5132 237.344 26.0133C236.478 26.4672 235.794 27.1517 235.294 28.0632C234.794 28.9285 234.542 29.9322 234.542 31.0706L234.538 31.0689V49.9878H224.087V16.7852H234.538V19.3965C235.253 18.7592 236.051 18.2102 236.932 17.7499C238.982 16.6575 241.284 16.1114 243.834 16.1114C246.384 16.1114 248.459 16.7036 250.324 17.8882C252.236 19.0266 253.739 20.5516 254.835 22.4668C255.927 24.3783 256.474 26.4743 256.474 28.7512V49.9984H246.022L246.019 49.9914ZM30.1966 16.8386H17.9557V29.0796C24.717 29.0796 30.1966 23.5999 30.1966 16.8386ZM10.5013 0.389491H0V49.9914H10.5013V0.389491ZM17.952 30.574L34.1773 49.9914H20.5374L11.9903 39.7418L17.952 30.574Z" fill="black"/>
</g>
<defs>
<clipPath id="clip0_0_12">
<rect width="256.48" height="64" fill="white"/>
</clipPath>
</defs>
</svg>
